<?xml version="1.0" encoding="UTF-8" standalone="no"?>
<!-- Generator: Adobe Illustrator 16.0.0, SVG Export Plug-In . SVG Version: 6.00 Build 0)  -->

<svg
   xmlns:dc="http://purl.org/dc/elements/1.1/"
   xmlns:cc="http://creativecommons.org/ns#"
   xmlns:rdf="http://www.w3.org/1999/02/22-rdf-syntax-ns#"
   xmlns:svg="http://www.w3.org/2000/svg"
   xmlns="http://www.w3.org/2000/svg"
   xmlns:sodipodi="http://sodipodi.sourceforge.net/DTD/sodipodi-0.dtd"
   xmlns:inkscape="http://www.inkscape.org/namespaces/inkscape"
   version="1.1"
   id="d28"
   x="0px"
   y="0px"
   width="999.99982"
   height="130.50787"
   viewBox="-202.282 215.02 999.99982 130.50787"
   enable-background="new -202.282 215.02 1000 412.836"
   xml:space="preserve"
   sodipodi:docname="TransMart.svg"
   inkscape:version="0.92.3 (2405546, 2018-03-11)"><metadata
   id="metadata17"><rdf:RDF><cc:Work
       rdf:about=""><dc:format>image/svg+xml</dc:format><dc:type
         rdf:resource="http://purl.org/dc/dcmitype/StillImage" /><dc:title></dc:title></cc:Work></rdf:RDF></metadata><defs
   id="defs15" /><sodipodi:namedview
   pagecolor="#ffffff"
   bordercolor="#666666"
   borderopacity="1"
   objecttolerance="10"
   gridtolerance="10"
   guidetolerance="10"
   inkscape:pageopacity="0"
   inkscape:pageshadow="2"
   inkscape:window-width="1366"
   inkscape:window-height="705"
   id="namedview13"
   showgrid="false"
   inkscape:zoom="0.35300002"
   inkscape:cx="1129.8648"
   inkscape:cy="583.25697"
   inkscape:window-x="-8"
   inkscape:window-y="-8"
   inkscape:window-maximized="1"
   inkscape:current-layer="d28" />

<path
   style="fill:#ed1b24;fill-opacity:1;stroke-width:0.39215684"
   d="m 297.71799,345.1809 c -14.29397,-1.37415 -28.78864,-7.5135 -39.85863,-16.88247 -1.75557,-1.48579 -3.39964,-2.95172 -3.6535,-3.25762 -0.37517,-0.45206 1.31687,-2.68956 9.04076,-11.95516 5.2263,-6.26946 9.60565,-11.39879 9.73192,-11.39853 0.12647,2.8e-4 1.55319,1.08396 3.17083,2.40823 6.55059,5.36249 12.39508,8.89457 17.84312,10.78335 2.75341,0.95458 3.71304,1.08747 7.84314,1.08618 4.03873,-10e-4 4.98318,-0.12663 6.66176,-0.88451 2.53362,-1.14381 3.66092,-2.23232 3.95934,-3.82303 0.55666,-2.96729 -1.76571,-5.94491 -6.25896,-8.02486 -1.32078,-0.61138 -5.13664,-1.81317 -8.47978,-2.67065 -12.00222,-3.07844 -18.45921,-5.54547 -24.04669,-9.18759 -7.543,-4.91677 -11.61955,-10.94822 -13.42391,-19.86133 -0.91279,-4.50872 -0.61681,-13.43663 0.58349,-17.6013 3.24315,-11.25283 11.04843,-19.47739 22.44263,-23.64816 5.50219,-2.01407 9.35647,-2.71646 16.20919,-2.95392 12.70947,-0.44044 24.32295,2.26235 34.90132,8.1226 4.02719,2.23098 12.20688,8.24227 12.08057,8.87806 -0.0424,0.21303 -3.80236,5.78157 -8.35555,12.37462 l -8.27864,11.98739 -4.2937,-2.90171 c -12.60609,-8.51928 -23.86396,-11.31362 -28.49222,-7.0721 -1.06709,0.9779 -1.40488,1.63227 -1.54963,3.00173 -0.16193,1.53163 -0.0303,1.93616 1.05099,3.2259 2.1299,2.54124 6.19291,4.20067 20.38784,8.32695 15.68739,4.56013 25.19416,11.60496 29.2263,21.65769 3.11065,7.75534 2.86151,19.77564 -0.5813,28.04572 -6.65026,15.97465 -24.86927,24.43479 -47.86069,22.22452 z m 283.13725,-1.54183 c -24.29579,-3.36722 -41.90546,-19.32268 -47.38401,-42.93282 -4.97863,-21.45559 2.21739,-43.96805 18.46264,-57.76007 10.13212,-8.60202 20.89682,-12.36233 35.39197,-12.3631 14.51979,-8e-4 25.64625,4.50266 36.5686,14.80123 l 3.23532,3.05049 v -8.4721 -8.47212 h 8.43135 8.43138 v 55.68626 55.68628 h -8.43138 -8.43135 v -8.26796 -8.26796 l -3.62746,3.39709 c -7.4085,6.93801 -14.94715,11.04508 -24.21569,13.19279 -3.83974,0.88974 -14.27228,1.29839 -18.43137,0.72199 z m 18.62744,-17.20114 c 6.10857,-1.84331 11.9672,-5.24516 16.62465,-9.65324 3.99193,-3.77817 6.41322,-7.08815 8.89273,-12.15687 6.37305,-13.02797 5.09604,-28.09706 -3.42895,-40.46249 -8.47531,-12.29336 -23.02242,-18.93063 -37.26743,-17.00368 -19.28186,2.60827 -33.64719,18.03797 -34.69922,37.27011 -1.11273,20.34127 12.13189,38.08481 31.64292,42.39151 4.65238,1.02691 14.22557,0.82462 18.2353,-0.38534 z m 188.54856,16.99116 c -10.8196,-1.57789 -19.7049,-6.97183 -25.48,-15.46792 -2.7929,-4.10866 -4.9688,-9.4279 -6.497,-15.88237 -0.8092,-3.41774 -0.8401,-4.51896 -0.9779,-34.80392 l -0.1425,-31.27449 h -7.0393 -7.0393 v -7.84314 -7.84314 h 7.451 7.4509 V 222.66706 215.02 h 8.2353 8.2353 v 7.6414 7.64138 l 12.0588,0.10369 12.0589,0.10368 0.1118,6.66667 c 0.062,3.66669 0.015,7.06374 -0.1054,7.54903 l -0.2173,0.88235 h -11.9583 -11.9581 l 0.05,28.13724 c 0.053,29.7905 0.213,32.98181 1.9383,38.69258 0.4616,1.5279 1.5686,4.18978 2.46,5.91528 3.7356,7.2308 12.031,12.74509 19.173,12.74509 h 1.8784 v 6.47057 6.4706 l -3.0393,-0.0421 c -1.6715,-0.0231 -4.663,-0.27892 -6.6475,-0.56836 z m -960.50933,-42.33068 v -41.7647 h -14.90196 -14.90195 v -14.90195 -14.90195 h 47.64706 47.64704 v 14.90195 14.90195 h -15.09803 -15.09804 v 41.7647 41.76471 h -17.64704 -17.64708 z m 78.03921,-14.90195 v -56.66665 l 25.58824,7.9e-4 c 26.49305,8e-4 33.73377,0.28385 39.472,1.54206 17.67922,3.87651 28.23976,15.25814 30.25697,32.60949 1.15298,9.91757 -1.02263,19.83254 -5.94158,27.07776 -2.10439,3.09962 -6.12553,7.09814 -9.20021,9.14854 -1.28275,0.85542 -2.47802,1.67174 -2.65617,1.81408 -0.26634,0.21282 9.81059,21.30521 17.82822,37.31689 l 1.91457,3.82353 h -19.54154 -19.54157 l -7.95263,-16.56861 c -4.37393,-9.11276 -8.06714,-16.561 -8.20711,-16.6842 -2.3879,0.002 -4.94464,0.006 -7.11723,0 v 16.62643 16.62642 h -17.45097 -17.45099 v -56.66651 z m 53.74745,-6.61504 c 4.2146,-1.56104 6.63404,-5.09049 6.64088,-9.68766 0.006,-3.60703 -0.87597,-5.91854 -2.95409,-7.74777 -2.84305,-2.50253 -4.66884,-2.90248 -14.19894,-3.11032 l -8.33334,-0.1818 v 10.86651 10.86653 l 8.52942,-0.17197 c 6.71425,-0.13539 8.90964,-0.31272 10.31607,-0.83367 z m 46.9318,63.27984 c 0.0496,-0.12951 0.89777,-1.76493 2.00493,-3.71202 10.6124,-18.66321 64.72483,-112.0549 64.99625,-112.10466 0.19143,-0.035 15.37695,25.96559 33.74555,57.77932 l 33.50466,58.03736 c -5.84732,-0.11 -11.01157,0.1275 -16.45025,0 -0.25267,-0.2741 -11.88352,-20.30198 -25.51886,-43.91963 C 84.88733,275.32399 73.60648,255.86994 73.45412,255.7104 73.30183,255.55084 61.80372,275.09497 47.90293,299.14177 L 22.6288,342.86321 c -5.4948,-0.007 -11.48664,-0.002 -16.38843,-0.002 z m 28.30221,0 c 0.0344,-0.0895 2.01641,-3.82078 4.8624,-8.80624 10.22755,-17.91607 33.57012,-58.64657 33.80153,-58.94443 0.0451,-0.058 8.82346,15.11845 19.50752,33.7255 l 19.53928,34.02517 c -5.50186,0.007 -11.41305,-0.008 -16.59538,0 -0.23696,-0.0909 -5.08145,-8.88073 -11.10524,-19.35388 -6.02381,-10.47315 -11.10131,-18.99994 -11.28337,-18.94843 -0.18202,0.0515 -5.29622,8.69103 -11.36485,19.19898 l -11.03383,19.10536 c -3.55388,-0.0305 -7.46873,0.0558 -10.59113,-0.002 -1.54256,-0.0317 -3.39763,0.0413 -5.73693,-10e-6 z M 143.60034,286.1965 v -56.66665 h 13.65713 13.65711 l 0.79734,0.88235 c 0.43854,0.48529 9.16048,11.89899 19.38209,25.36378 l 18.58475,24.48144 0.10099,-25.36379 0.10095,-25.36378 h 17.64422 17.64418 v 56.66665 56.66666 c -8.69279,0.001 -17.38557,-0.0104 -26.07844,-0.002 l -19.99997,-26.35725 -20.00002,-26.31636 -0.10083,26.33681 -0.10079,26.3368 h -17.64431 -17.64428 z m 220.78432,0.98038 v -55.68626 h 8.22733 8.22733 l 0.1061,8.10864 0.1061,8.10864 1.52696,-2.47477 c 3.34082,-5.41455 9.19773,-10.37898 15.17987,-12.86678 4.77861,-1.98732 8.63097,-2.57859 15.2316,-2.33782 14.20507,0.51816 22.87314,5.57222 29.41071,17.14837 0.9135,1.61763 1.70949,2.99047 1.76871,3.05072 0.0593,0.0603 0.96945,-1.43976 2.0226,-3.33333 2.25476,-4.05415 7.99979,-10.09317 11.61982,-12.21451 8.7655,-5.1365 23.98168,-6.29603 34.69084,-2.64356 13.23586,4.51426 21.29931,14.26049 24.92773,30.12998 0.81175,3.55028 0.83515,4.56858 0.96984,42.16754 l 0.13797,38.52942 h -8.82724 -8.82716 l -0.12978,-39.50979 c -0.12028,-36.59003 -0.18161,-39.68213 -0.8308,-41.84141 -2.45751,-8.17372 -7.84301,-13.54018 -15.4321,-15.37752 -3.55146,-0.85983 -11.16578,-0.86114 -14.71158,-0.002 -9.1513,2.21596 -15.67377,9.4053 -18.02566,19.86853 -0.8157,3.6291 -0.84134,4.67156 -0.99133,40.29412 l -0.15398,36.56862 h -8.39093 -8.3909 L 433.69194,306.099 c -0.1525,-41.61647 0.046,-38.92359 -3.4026,-46.17647 -3.79226,-7.97599 -8.15848,-11.98719 -15.0229,-13.80138 -2.99061,-0.79038 -9.7919,-0.8722 -12.84261,-0.15443 -8.19235,1.92739 -14.60249,8.37443 -17.58028,17.68133 -2.41726,7.55512 -2.78504,14.26401 -2.80025,51.07843 l -0.0104,28.13725 h -8.82352 -8.82353 z m 298.82353,0 v -55.68626 h 8.43134 8.43138 v 8.48342 8.48338 l 3.12571,-2.98623 c 8.03645,-7.67802 16.14154,-12.00182 26.27215,-14.01537 2.39246,-0.47551 6.45858,-0.8373 11.28847,-1.00444 l 7.549,-0.26119 v 7.65551 7.65552 l -6.7647,0.20982 c -3.95889,0.12277 -7.98464,0.47364 -9.70591,0.84602 -15.46967,3.34667 -25.46343,12.36267 -29.35081,26.47929 l -1.03219,3.74849 -0.11528,33.03921 -0.11529,33.03922 h -9.00694 -9.00685 z"
   id="path3002"
   inkscape:connector-curvature="0"
   sodipodi:nodetypes="scccccccccccscccsscccscccsccscsccccccccccccccccccscscssccccccccccccccccccccccccccccscccccccccccccccccccccccccssscccscccccccccccccccccccccccscsccscscccscsccccsccccccccscccccccccccccccccccccccsccccscccccscsccscccscccccccccccccccccccccccccccccc" /></svg>